<svg xmlns="http://www.w3.org/2000/svg" width="1200" height="360" viewBox="0 0 1200 360">
  <rect width="1200" height="360" rx="24" fill="#07111f"/>
  <text x="60" y="58" fill="#9dbcf5" font-family="Arial, sans-serif" font-size="18" letter-spacing="3">CRPA PIPELINE</text>
  <text x="60" y="100" fill="#f4f7fb" font-family="Arial, sans-serif" font-size="30" font-weight="700">From asset CSV to a risk report</text>
  <g font-family="Arial, sans-serif" font-size="18" text-anchor="middle">
    <rect x="60" y="160" width="190" height="90" rx="14" fill="#12233d" stroke="#4b8df8"/>
    <text x="155" y="197" fill="#f4f7fb">Upload CSV</text><text x="155" y="225" fill="#9dbcf5" font-size="14">schema + QA</text>
    <rect x="340" y="160" width="190" height="90" rx="14" fill="#12233d" stroke="#4b8df8"/>
    <text x="435" y="197" fill="#f4f7fb">Hazard layers</text><text x="435" y="225" fill="#9dbcf5" font-size="14">flood · wind · heat</text>
    <rect x="620" y="160" width="190" height="90" rx="14" fill="#12233d" stroke="#4b8df8"/>
    <text x="715" y="197" fill="#f4f7fb">Scoring</text><text x="715" y="225" fill="#9dbcf5" font-size="14">fragility + loss</text>
    <rect x="900" y="160" width="240" height="90" rx="14" fill="#12352f" stroke="#48d6a0"/>
    <text x="1020" y="197" fill="#f4f7fb">Report + dashboard</text><text x="1020" y="225" fill="#a8efd5" font-size="14">CSV · GeoJSON · Markdown</text>
  </g>
  <g stroke="#78a9ff" stroke-width="3" fill="none"><path d="M250 205h80"/><path d="M530 205h80"/><path d="M810 205h80"/></g>
  <g fill="#78a9ff"><path d="m320 196 14 9-14 9z"/><path d="m600 196 14 9-14 9z"/><path d="m880 196 14 9-14 9z"/></g>
</svg>
